<svg xmlns="http://www.w3.org/2000/svg" id="my-svg" width="256" height="256" viewBox="0 0 256 256">
  <!-- Gradient Definition with left to right direction -->
  <defs>
    <linearGradient id="gradient1" x1="100%" y1="50%" x2="0%" y2="50%">
      <stop offset="0%" style="stop-color:#1595b6;stop-opacity:1" />
      <stop offset="100%" style="stop-color:#232d84e6;stop-opacity:1" />
    </linearGradient>
  </defs>

  <!-- Path using the left to right gradient -->
  <path fill="url(#gradient1)" d="M53.2 145.1l81.9-71.7h-34.3L19 145.1l102.8 90h34.3l-102.9-90"></path>

  <g fill="url(#gradient1)">
    <path d="M145.3 145.1l36-31.6s.8-.7 1.1-1l2.4-2.4c8.5-10.3 13.3-23.3 13.3-36.7 0-31.8-25.8-57.7-57.6-57.7l-111.1.1L7.2 38.6l111.4-.1h21.9c19.2 0 34.8 15.6 34.8 34.8 0 8.2-2.7 15.8-8 22.2-1 1.3-8.3 7.3-8.3 7.3l-12.4 10.6-35.6 31.7 102.9 90h34.3l-102.9-90zm33.4-31.7h.2-.2z"></path>
    <path d="M252.8 236.9h-39.6l-.5-.4-104.4-91.3 37.1-33 12.5-10.6c3.5-2.9 7.5-6.3 8.1-7 5-6 7.6-13.3 7.6-21.1 0-18.2-14.8-33.1-33.1-33.1H3L28.6 14h115.8l-.1.1c31 2 55.6 27.8 55.6 59.3 0 13.6-4.9 27.1-13.7 37.8-.5.6-2.2 2.3-2.6 2.6-.3.3-1.2 1-1.2 1l-.5.4-34 29.8 104.9 91.9zm-38.3-3.5h29l-100.9-88.3 34.1-29.9h-2.2l3.6-3.5h1v1.5l1.6-1.4c.2-.2.4-.4.6-.5.4-.3 1.9-1.9 2.2-2.2 8.3-10.1 12.9-22.8 12.9-35.6 0-30.8-25.1-55.9-55.9-55.9h-3.9l-106.5-.1-18.8 19.4 109-.1h20.1c20.2 0 36.6 16.4 36.6 36.6 0 8.6-2.9 16.6-8.4 23.3-1 1.3-7.3 6.5-8.5 7.5l-12.4 10.6-34.1 30.3 100.9 88.3z"></path>
  </g>
</svg>
